<?xml version="1.0" encoding="UTF-8" standalone="no"?>
<!-- Generator: Gravit.io -->

<svg
   style="isolation:isolate"
   viewBox="0 0 44 44"
   width="44pt"
   height="44pt"
   version="1.1"
   id="svg3"
   sodipodi:docname="busy.svg"
   inkscape:version="1.3 (0e150ed6c4, 2023-07-21)"
   xmlns:inkscape="http://www.inkscape.org/namespaces/inkscape"
   xmlns:sodipodi="http://sodipodi.sourceforge.net/DTD/sodipodi-0.dtd"
   xmlns:xlink="http://www.w3.org/1999/xlink"
   xmlns="http://www.w3.org/2000/svg"
   xmlns:svg="http://www.w3.org/2000/svg">
  <sodipodi:namedview
     id="namedview3"
     pagecolor="#ffffff"
     bordercolor="#000000"
     borderopacity="0.25"
     inkscape:showpageshadow="2"
     inkscape:pageopacity="0.0"
     inkscape:pagecheckerboard="0"
     inkscape:deskcolor="#d1d1d1"
     inkscape:document-units="pt"
     inkscape:zoom="19.380682"
     inkscape:cx="29.307534"
     inkscape:cy="29.230138"
     inkscape:window-width="2560"
     inkscape:window-height="1351"
     inkscape:window-x="-9"
     inkscape:window-y="-9"
     inkscape:window-maximized="1"
     inkscape:current-layer="svg3" />
  <path
     d="M 1.5,22 C 1.5,10.686 10.686,1.5 22,1.5 33.314,1.5 42.5,10.686 42.5,22 42.5,33.314 33.314,42.5 22,42.5 10.686,42.5 1.5,33.314 1.5,22 Z m 1,0 C 2.5,16.83 4.56,11.87 8.21,8.21 11.87,4.56 16.83,2.5 22,2.5 c 5.17,0 10.13,2.06 13.79,5.71 3.65,3.66 5.71,8.62 5.71,13.79 0,5.17 -2.06,10.13 -5.71,13.79 C 32.13,39.44 27.17,41.5 22,41.5 16.83,41.5 11.87,39.44 8.21,35.79 4.56,32.13 2.5,27.17 2.5,22 Z"
     fill-rule="evenodd"
     fill="#292048"
     id="path1"
     style="opacity:0.99359;mix-blend-mode:darken;fill:#a954fe;fill-opacity:1" />
  <defs
     id="defs1">
    <linearGradient
       id="linearGradient7"
       inkscape:collect="always">
      <stop
         style="stop-color:#5a01b7;stop-opacity:1;"
         offset="0"
         id="stop7" />
      <stop
         style="stop-color:#2f2f2f;stop-opacity:0;"
         offset="0.64265925"
         id="stop8" />
    </linearGradient>
    <filter
       id="pZsLpuEib01tEP5RZu3cE9HARYpJvcq8"
       x="-1.1230242"
       y="-1.2883047"
       width="3.2460484"
       height="3.5766094"
       filterUnits="objectBoundingBox"
       color-interpolation-filters="sRGB">
      <feGaussianBlur
         in="SourceGraphic"
         stdDeviation="11.272666"
         id="feGaussianBlur1" />
      <feOffset
         dx="0"
         dy="0"
         result="pf_100_offsetBlur"
         id="feOffset1" />
      <feFlood
         flood-color="#FF0000"
         flood-opacity="0.65"
         id="feFlood1" />
      <feComposite
         in2="pf_100_offsetBlur"
         operator="in"
         result="pf_100_dropShadow"
         id="feComposite1" />
      <feBlend
         in="SourceGraphic"
         in2="pf_100_dropShadow"
         mode="normal"
         id="feBlend1" />
    </filter>
    <linearGradient
       inkscape:collect="always"
       xlink:href="#linearGradient7"
       id="linearGradient8"
       x1="-25.554399"
       y1="32"
       x2="52.645061"
       y2="32"
       gradientUnits="userSpaceOnUse"
       spreadMethod="repeat" />
  </defs>
  <g
     filter="url(#pZsLpuEib01tEP5RZu3cE9HARYpJvcq8)"
     id="g2"
     style="mix-blend-mode:normal;filter:url(#pZsLpuEib01tEP5RZu3cE9HARYpJvcq8);fill:url(#linearGradient8);fill-opacity:1">
    <linearGradient
       id="_lgradient_7"
       x1="0.0027067361"
       y1="0.096874997"
       x2="1.2744139"
       y2="1.0629767"
       gradientTransform="matrix(24.16,0,0,21,1.5,21.5)"
       gradientUnits="userSpaceOnUse"
       style="fill:url(#linearGradient8)">
      <stop
         offset="0%"
         stop-opacity="1"
         style="stop-color:rgb(255, 0, 145);fill:url(#linearGradient8)"
         id="stop1" />
      <stop
         offset="98.33333333333333%"
         stop-opacity="0"
         style="stop-color:rgb(0, 0, 0);fill:url(#linearGradient8)"
         id="stop2" />
    </linearGradient>
    <path
       d="m 25.01,41.27 v 0 c 0.276,-0.044 0.534,0.142 0.575,0.415 v 0 c 0.041,0.273 -0.145,0.531 -0.415,0.575 v 0 C 24.12,42.42 23.06,42.5 22,42.5 16.57,42.5 11.35,40.34 7.51,36.49 3.66,32.65 1.5,27.43 1.5,22 v -0.5 h 1 V 22 c 0,5.17 2.06,10.13 5.71,13.79 3.66,3.65 8.62,5.71 13.79,5.71 1.01,0 2.02,-0.08 3.01,-0.23 z"
       fill="url(#_lgradient_7)"
       id="path2"
       style="fill:url(#linearGradient8);fill-opacity:1" />
  </g>
  <path
     d=" M 2.5 21.64 L 2.49 22.14 L 1.49 22.12 L 1.5 21.62 C 1.51 20.98 1.56 20.34 1.63 19.7 L 1.63 19.7 C 1.658 19.424 1.904 19.225 2.18 19.255 L 2.18 19.255 C 2.456 19.285 2.653 19.534 2.62 19.81 L 2.62 19.81 C 2.55 20.42 2.51 21.03 2.5 21.64 Z "
     fill="rgb(255,255,255)"
     id="path3" />
</svg>
